<svg width="128" height="128" viewBox="0 0 128 128" fill="none" xmlns="http://www.w3.org/2000/svg">
  <!-- Background -->
  <rect x="0" y="0" width="128" height="128" rx="28" fill="#334155" />
  <!-- Lines -->
  <g>
    <rect x="12" y="20" width="99" height="9" rx="4.5" fill="#cbd5e1" />
    <rect x="32" y="40" width="90" height="9" rx="4.5" fill="#cbd5e1" />
    <rect x="08" y="60" width="96" height="9" rx="4.5" fill="#cbd5e1" />
    <rect x="22" y="80" width="94" height="9" rx="4.5" fill="#cbd5e1" />
  </g>
  <g transform="matrix(1.4,0,0,1.4,-13,-22)">
    <!-- Katana -->
    <g transform="translate(6,34) scale(1.6)">
      <path
        fill="#42484c"
        d="M 9.4 13.6 l 2 -1.4 l 6.3 9 l -2 1.4 Z"
      />
      <path
        fill="#66757f"
        d="M 12.3 12.8 l -2.5 1.7 c -0.2 0.2 -0.5 0.1 -0.7 -0.1 c -0.2 -0.2 -0.1 -0.5 0.1 -0.7 l 2.5 -1.7 c 0.2 -0.2 0.5 -0.1 0.7 0.1 c 0.2 0.2 0.1 0.5 -0.1 0.7 Z m 6.6 7.6 l -4.1 2.9 c -0.2 0.2 -0.5 0.1 -0.7 -0.1 c -0.2 -0.2 -0.1 -0.5 0.1 -0.7 l 4.1 -2.9 c 0.2 -0.2 0.5 -0.1 0.7 0.1 c 0.2 0.2 0.1 0.5 -0.1 0.7 Z"
      />
      <path
        fill="#111111"
        d="M 15.3 22.9 l 2.9 -2 l 5.2 7.4 l -2.9 2 Z m -4.8 -7.7 l 2 -1.4 l 0.6 0.8 l -2 1.4 Z m 1.1 1.6 l 2 -1.4 l 0.6 0.8 l -2 1.4 Z m 1.1 1.6 l 2 -1.4 l 0.6 0.8 l -2 1.4 Z m 1.1 1.6 l 2 -1.4 l 0.6 0.8 l -2 1.4 Z"
      />
    </g>

    <!-- Ninja -->
    <g>
      <circle cx="55.9" cy="44.6" r="24" fill="#111827" />
      <path
        d="M 27.9 89.6 C 27.9 74.1 40.4 61.6 55.9 61.6 C 71.4 61.6 83.9 74.1 83.9 89.6 V 100.6 H 27.9 V 89.6 Z"
        fill="#111827" />
      <path
        d="M 36.9 44.6 C 39.5 37.8 47 32.6 55.9 32.6 C 64.8 32.6 72.3 37.8 74.9 44.6 L 67.9 51.6 H 43.9 L 36.9 44.6 Z"
        fill="#1f2937" />
      <rect x="40.9" y="37.6" width="30" height="12" rx="6" fill="#f1c27d" />
      <circle cx="51" cy="43" r="2.9" fill="#0B0F16" />
      <circle cx="61" cy="43" r="2.9" fill="#0B0F16" />
      <circle cx="50.2" cy="42.2" r="0.8" fill="#E5E7EB" />
      <circle cx="60.2" cy="42.2" r="0.8" fill="#E5E7EB" />
    </g>

    <!-- Blindfold -->
    <g>
      <path
        d="M 31.3 41.3 C 38.1 38.8 46.3 37.5 56.1 37.5 C 65.9 37.5 74.2 39 82.2 42.3 L 80.3 50.7 C 72 52.1 64.1 52.8 56.1 52.8 C 49.4 52.8 42.5 51.8 35.8 49.9 L 31.3 41.3 Z"
        fill="#0b0f16" />
      <ellipse cx="32.6" cy="44.4" rx="2.8" ry="3.1" fill="#0b0f16" />
      <circle cx="36.2" cy="44.5" r="1.5" fill="#0b0f16" />
      <circle cx="36.7" cy="46.1" r="2.2" fill="#0b0f16" />
      <path
        d="M 33.8 43.3 C 31.2 41 28.9 39.8 26.7 39.3 C 24.8 38.9 23 39 21.2 39.5 C 22.5 41.1 23.9 42.6 25.7 43.7 C 27.7 44.8 30.6 45.4 33.8 43.3 Z"
        fill="#0b0f16" />
      <path
        d="M 33.8 45.6 C 31.6 48 29.9 50.2 29.1 52.5 C 28.3 54.3 28 56.1 28.2 58 C 30.1 57.1 31.9 56.1 33.4 54.6 C 35.1 53 36.3 50.4 33.8 45.6 Z"
        fill="#0b0f16" />
    </g>
  </g>
</svg>